<svg width="141.73" height="141.73" xmlns="http://www.w3.org/2000/svg">

 <g>
  <title>background</title>
  <rect fill="none" id="canvas_background" height="402" width="582" y="-1" x="-1"/>
 </g>
 <g>
  <title>Layer 1</title>
  <path id="svg_2" fill="#ffffff" d="m101.628,40.092c-8.22,-8.22 -19.149,-12.746 -30.774,-12.746c-11.624,0 -22.553,4.526 -30.772,12.746c-16.968,16.969 -16.967,44.578 0.001,61.546c8.22,8.22 19.149,12.747 30.773,12.747s22.553,-4.526 30.772,-12.746s12.747,-19.148 12.747,-30.773s-4.527,-22.554 -12.747,-30.774zm-1.414,60.133c-7.842,7.842 -18.269,12.16 -29.358,12.16s-21.517,-4.319 -29.359,-12.161c-16.188,-16.188 -16.188,-42.529 -0.001,-58.718c7.842,-7.842 18.269,-12.16 29.358,-12.16c11.091,0 21.518,4.318 29.36,12.16c7.842,7.843 12.161,18.269 12.161,29.359s-4.319,21.517 -12.161,29.36z"/>
  <path id="svg_3" fill="#ffffff" d="m65.893,55.983c-0.391,-0.391 -1.023,-0.391 -1.414,0s-0.391,1.023 0,1.414l13.466,13.466l-13.467,13.468c-0.391,0.391 -0.391,1.023 0,1.414c0.195,0.195 0.451,0.293 0.707,0.293s0.512,-0.098 0.707,-0.293l14.173,-14.175c0.391,-0.391 0.391,-1.023 0,-1.414l-14.172,-14.173z"/>
 </g>
</svg>